<svg version="1.1" id="Layer_1" xmlns="http://www.w3.org/2000/svg" xmlns:xlink="http://www.w3.org/1999/xlink" x="0px" y="0px"
	 width="100%" viewBox="0 0 896 1024" enable-background="new 0 0 896 1024" xml:space="preserve">
<path fill="#000000" opacity="1.000000" stroke="none" 
	d="
M268.897430,748.804016 
	C268.504150,746.375427 267.256897,744.398315 265.351349,742.951904 
	C257.002930,736.614746 251.655518,727.688477 248.050858,718.484253 
	C243.199142,706.095703 235.738159,695.611328 228.468277,684.834595 
	C226.499054,681.915527 224.792389,678.693176 224.309326,675.269531 
	C223.516632,669.651550 222.118622,664.638855 217.451065,660.862122 
	C215.357574,659.168213 216.280563,656.350281 216.732117,654.204285 
	C218.803192,644.361267 215.641953,635.175964 213.584946,625.838013 
	C212.877441,622.626343 212.121613,619.423706 211.509750,616.193787 
	C211.368134,615.446350 211.431839,614.249451 211.900116,613.861084 
	C216.204514,610.290649 214.761429,605.586548 214.042191,601.376282 
	C213.414215,597.700134 215.732132,595.078918 216.242676,591.829590 
	C217.297195,585.118042 214.921219,578.272644 217.555939,571.691833 
	C221.027298,563.021484 222.959595,553.782166 227.822891,545.604675 
	C230.488419,541.122620 232.969635,536.545593 233.899338,531.091003 
	C234.668976,526.575317 236.171066,522.149292 239.994202,518.466492 
	C243.964218,514.642212 245.015213,508.369781 249.195648,504.411224 
	C257.778687,496.283600 262.389771,485.205292 270.425171,476.525757 
	C276.046814,470.453522 282.601074,465.344513 287.784973,459.021118 
	C291.835754,454.079926 296.004272,449.434357 301.339722,446.091400 
	C310.966400,440.059845 317.907013,431.019104 326.670868,423.965729 
	C333.553833,418.426147 340.561157,412.323425 345.448547,404.549286 
	C346.154816,403.425873 346.999146,403.026001 348.225372,402.789215 
	C353.045868,401.858459 357.971832,402.019806 362.814606,400.797913 
	C367.037903,399.732330 371.193573,403.963104 371.372375,408.444427 
	C371.433350,409.973877 371.448425,411.545929 370.017883,412.505310 
	C368.230408,413.704071 367.339355,411.999237 366.237732,411.126038 
	C365.609192,410.627838 365.180634,409.808228 364.047272,410.060211 
	C361.504608,417.861023 355.107086,422.193268 348.845978,426.827789 
	C342.574860,431.469788 337.160675,437.089020 331.941895,442.939484 
	C326.589722,448.939484 321.806915,455.608185 314.683594,459.834442 
	C314.116394,460.170929 313.363617,460.515839 313.130737,461.046997 
	C308.643707,471.280243 296.835602,475.327576 292.509003,485.801758 
	C287.166779,498.734436 274.331970,507.439362 271.827637,522.056274 
	C270.076813,532.275269 266.155975,541.974365 265.103210,552.432495 
	C264.611115,557.321289 261.790070,561.955994 260.614807,566.998718 
	C259.024872,573.820740 257.743378,580.546875 258.260437,587.533630 
	C258.879547,595.899719 257.655640,604.252808 259.087769,612.688843 
	C260.766052,622.575012 260.081329,632.654785 264.186737,642.383606 
	C268.905701,653.566345 271.904785,665.474304 275.664490,677.062927 
	C276.178436,678.647095 276.336304,680.637390 277.397797,681.705688 
	C283.805542,688.154785 286.654022,696.856934 291.878021,704.036133 
	C299.490448,714.497742 309.397369,722.521423 319.627533,730.175598 
	C330.522400,738.327209 341.531006,746.327148 352.519470,754.352905 
	C355.091156,756.231201 357.746277,756.299255 360.205627,754.078857 
	C361.186737,753.193054 362.182983,751.584106 363.475677,752.265259 
	C367.766785,754.526611 369.920807,752.315796 371.822723,748.909912 
	C372.181458,748.267517 373.040253,747.552979 373.721130,747.495300 
	C382.285950,746.769470 385.060211,738.385010 391.101990,734.328674 
	C392.091187,733.664551 392.164368,731.636047 392.791626,729.870056 
	C399.912292,732.362549 403.080322,726.491821 406.391815,722.574707 
	C412.464783,715.390991 419.400330,709.423218 427.259521,704.496643 
	C433.037384,700.874756 436.158020,694.846558 440.983276,690.347290 
	C445.803497,685.852783 450.020752,680.659058 454.522644,675.793701 
	C458.828522,671.140137 462.798126,665.921631 465.746399,660.334473 
	C468.939362,654.283630 475.047241,650.976135 478.339172,645.104248 
	C479.344086,643.311707 480.750824,641.888062 481.234955,639.654053 
	C482.065216,635.822632 485.949585,634.135437 488.024200,631.114929 
	C491.719421,625.735046 497.442108,621.891418 500.031494,615.709229 
	C501.566315,612.044861 501.602905,608.814453 496.998627,606.692139 
	C494.399200,605.494019 491.834930,603.286255 490.300079,600.869507 
	C482.659119,588.838318 471.308350,580.660278 460.660339,571.776733 
	C456.764191,568.526184 453.817444,564.538086 450.588959,560.768555 
	C448.513275,558.344971 448.352997,555.854736 450.349884,552.652527 
	C457.287811,541.526733 467.459106,539.303650 479.325989,541.195618 
	C482.441315,541.692261 484.955780,541.686096 487.544525,539.227173 
	C489.692047,537.187378 493.297760,536.381897 495.979828,537.270386 
	C502.730927,539.506836 508.999664,536.166565 515.512146,536.427856 
	C516.312439,536.460022 517.552551,535.728271 517.870911,536.053406 
	C522.988159,541.279846 531.770691,539.578857 536.291077,546.546997 
	C539.911987,552.128662 546.897339,553.372681 552.882202,555.616638 
	C553.481689,555.841370 554.630859,555.982361 554.639771,556.198547 
	C554.882874,562.113586 560.784973,562.989929 563.970459,565.944824 
	C569.895142,571.440552 573.873474,578.842102 579.875427,583.580200 
	C586.145325,588.529724 591.182983,594.692749 597.603638,599.317688 
	C599.051514,600.360596 600.163208,601.624207 600.579041,603.185608 
	C602.333801,609.774048 607.357422,612.466003 613.220032,614.372192 
	C616.480469,615.432251 618.888916,624.308411 616.364502,628.618591 
	C611.854736,636.318604 608.247559,644.513428 602.506348,651.581360 
	C597.911255,657.238342 592.381104,661.894653 587.677734,667.400024 
	C582.739197,673.180725 576.142639,672.853210 570.854309,667.534546 
	C568.422607,665.088928 565.574646,662.985901 562.681030,661.084045 
	C553.153198,654.821838 548.628967,643.489502 538.560547,637.697510 
	C533.923279,635.029846 529.461609,631.884155 525.261597,626.687256 
	C524.930420,632.694763 521.974670,632.930115 517.867493,633.033325 
	C511.508942,633.193115 507.763855,638.106628 504.487976,642.950012 
	C503.572235,644.303894 502.732422,645.668701 501.702789,646.979614 
	C491.015686,660.586426 475.944000,670.103516 466.376190,684.681885 
	C463.254822,689.437866 459.197632,693.206665 455.352905,697.203003 
	C452.484070,700.184998 449.952728,703.049805 450.085815,707.481140 
	C450.116180,708.491699 449.491516,709.930969 448.593658,709.825989 
	C442.668488,709.133728 442.108765,715.991028 437.707886,717.397461 
	C437.047180,717.608582 436.435425,718.522888 436.142334,719.249573 
	C433.123718,726.734131 426.823425,731.703979 421.976593,737.777466 
	C419.285431,741.149719 416.084534,744.121826 413.472961,747.548279 
	C411.961975,749.530701 410.328369,751.915527 412.128967,754.964111 
	C417.527771,753.062256 422.428772,749.664978 428.605591,751.510681 
	C431.305450,752.317505 434.004974,750.063538 435.723511,748.471497 
	C443.607208,741.167603 453.990479,738.742981 462.949829,733.634094 
	C471.015503,729.034790 479.414551,724.669006 485.371979,717.114990 
	C487.190552,714.809082 489.131592,713.755737 492.218811,715.229492 
	C495.229736,716.666870 498.394104,714.800415 501.511993,714.639343 
	C505.185394,714.449524 508.688721,714.221252 512.172607,715.741699 
	C518.860596,718.660461 525.974487,720.355774 532.841187,722.656982 
	C540.215881,725.128418 546.955627,729.757874 553.594727,734.032288 
	C556.270508,735.754944 559.031555,737.180298 561.820251,738.603210 
	C570.573669,743.069763 576.363220,750.506714 580.973938,758.723450 
	C584.306335,764.662048 577.881836,770.408936 570.532532,772.357178 
	C561.018860,774.879211 550.886963,772.612000 541.844360,777.052246 
	C540.952087,777.490356 539.992859,777.874023 539.235168,778.492004 
	C531.478882,784.817566 524.124329,783.276489 518.733521,774.872681 
	C513.338013,766.461548 509.709229,757.198120 504.966949,748.488586 
	C501.635620,742.370422 497.362335,736.823364 494.192780,730.574707 
	C492.551331,727.338623 490.037659,727.576721 488.175507,730.785706 
	C487.427887,732.074158 486.654999,733.422852 486.293365,734.845642 
	C485.366058,738.493591 484.247314,741.620056 479.393982,740.457825 
	C478.778900,740.310547 477.837433,740.907654 477.240051,741.395874 
	C464.502045,751.805969 453.079651,763.820801 439.014191,772.615967 
	C435.817322,774.614929 433.748749,777.906982 429.982452,779.506042 
	C426.605957,780.939758 423.680603,782.157776 419.786621,782.189209 
	C415.252716,782.225891 411.715149,786.014587 407.870178,788.374634 
	C406.940643,788.945129 406.252869,790.413147 405.071106,790.133423 
	C399.382446,788.786926 393.973633,791.458557 388.304504,791.071472 
	C384.148193,790.787720 380.358307,793.573975 378.347168,796.660767 
	C373.240662,804.498352 364.646027,809.258850 360.483337,817.874817 
	C359.324280,820.273743 356.447571,821.160522 353.627411,821.375610 
	C344.226654,822.092773 335.596619,825.104858 327.752960,830.325562 
	C322.606873,833.750732 312.046661,832.638184 307.928467,828.176086 
	C305.183960,825.202393 305.624603,819.785400 308.709320,815.818542 
	C311.901062,811.713989 317.006897,810.338684 320.754883,807.051025 
	C324.608185,803.671021 328.789246,800.602966 332.256775,796.868958 
	C334.188965,794.788208 334.235840,791.643372 331.123901,789.870361 
	C328.412170,788.325317 325.729584,786.576294 322.379395,786.604980 
	C320.396637,786.621948 319.109589,785.171936 317.627502,784.108704 
	C311.279358,779.555115 304.825958,775.194641 297.588074,772.087219 
	C292.683441,769.981506 289.208588,765.760742 284.773804,762.853027 
	C279.514862,759.404968 275.201691,754.514404 270.003357,749.907715 
	C269.302856,749.324707 269.092651,749.070557 268.897430,748.804016 
z"/>
<path fill="#000000" opacity="1.000000" stroke="none" 
	d="
M306.416382,374.436127 
	C303.676270,382.118683 299.893005,388.937500 295.768311,395.443054 
	C289.882935,404.725647 283.861206,414.072571 276.656250,422.305603 
	C272.923798,426.570648 268.256805,430.649200 263.186401,433.729431 
	C260.660309,435.263916 257.545441,434.942627 254.901245,433.960999 
	C241.737366,429.074005 230.421143,422.418274 224.099564,408.549164 
	C220.717178,401.128418 216.549637,393.539642 209.920364,387.926331 
	C202.938507,382.014404 186.952850,379.411407 181.827347,384.929504 
	C185.010269,396.604950 187.415619,408.337921 191.362686,419.629364 
	C196.915741,435.515076 201.620926,451.657867 205.554184,468.004974 
	C208.985611,482.266388 209.254730,496.683258 206.918793,511.228912 
	C206.087799,516.403320 206.114761,521.715881 205.415848,526.986511 
	C203.456329,541.763794 195.474442,553.729980 188.619919,566.301819 
	C185.284042,572.420166 181.158859,577.306580 173.794174,578.108887 
	C171.469696,578.362122 171.849960,580.500366 170.920288,581.432190 
	C167.507904,582.382629 165.144669,579.860718 162.241104,579.258911 
	C157.555725,578.287720 152.856491,579.028625 148.103104,577.841125 
	C141.028275,576.073730 135.687668,571.630493 129.721085,568.181152 
	C125.975975,566.016052 125.534355,561.117432 122.962166,557.868164 
	C116.768379,550.043945 110.603928,541.925476 108.339165,532.182251 
	C105.033875,517.962463 99.249130,504.057892 101.497841,488.868896 
	C102.488701,482.176147 100.971634,475.859467 98.254509,469.490753 
	C95.657440,463.403442 96.992897,456.516266 97.182938,449.958252 
	C97.216286,448.807312 97.782135,447.640045 97.673973,446.521698 
	C96.729607,436.757477 99.429199,427.439056 100.809441,417.931183 
	C102.640091,405.320831 108.040184,394.078552 113.623589,383.011627 
	C115.740601,378.815491 118.849968,374.808716 121.482201,370.706116 
	C129.738113,357.838379 135.913528,344.143799 137.938034,328.793518 
	C138.210114,326.730499 139.397858,324.779694 140.214401,322.798676 
	C142.279449,317.788574 140.137024,312.626770 140.788528,307.562958 
	C140.978760,306.084412 140.680466,304.513702 141.033875,303.091553 
	C141.761551,300.163208 141.699234,296.520142 146.500854,296.908966 
	C150.268570,297.214081 154.936630,300.407867 155.206390,303.715210 
	C155.584641,308.352753 155.338821,313.023529 160.367477,315.783234 
	C161.906845,316.628021 161.253479,318.889496 161.112808,320.495728 
	C160.696335,325.251892 161.681107,329.447205 165.446716,332.673157 
	C167.473831,334.409821 168.080719,337.226440 167.345535,339.055450 
	C164.997574,344.896576 167.729553,350.004211 169.373917,354.990143 
	C171.002167,359.927155 173.092789,364.762573 174.056549,370.416901 
	C178.585907,367.968567 181.170898,364.561829 182.719498,360.902954 
	C184.615845,356.422363 186.574997,351.947571 186.982727,346.751099 
	C187.430634,341.042328 189.402420,335.432465 188.785416,329.568207 
	C187.155884,314.080322 186.756851,298.502472 185.014389,283.005035 
	C183.960281,273.629913 183.402802,264.133698 182.878250,254.685577 
	C182.389404,245.880722 184.731522,237.399292 186.898331,228.845306 
	C188.381042,222.991974 189.626968,217.434662 193.261093,212.422852 
	C197.760513,206.217712 207.845566,206.196533 211.983917,212.744736 
	C214.865616,217.304504 214.008636,226.966110 210.381607,230.809219 
	C208.596909,232.700241 204.540451,232.195145 202.943176,229.929688 
	C202.093521,228.724625 202.290085,226.956284 200.835770,226.063232 
	C199.111267,225.974228 198.774887,227.374893 198.099426,228.493027 
	C191.749649,239.004486 190.189835,250.186874 192.374908,262.263855 
	C193.995804,271.222595 193.775864,280.442108 195.978104,289.398346 
	C196.786240,292.684998 198.680099,295.468445 199.226151,298.758759 
	C202.234589,316.887207 204.333405,335.049133 201.152954,353.395508 
	C199.808365,361.151764 201.921829,362.905487 207.568848,368.207062 
	C215.465057,375.620300 224.353287,382.092896 227.964615,393.837372 
	C231.887512,406.595184 241.250717,416.112274 253.628098,422.107422 
	C256.519806,423.508057 258.290680,422.021729 259.393646,419.923248 
	C261.691193,415.551941 264.822693,412.241638 269.209778,409.936401 
	C270.417511,409.301788 271.520599,407.839081 271.973236,406.517151 
	C273.221741,402.871033 274.912811,399.871826 278.970642,398.809265 
	C280.142578,398.502411 280.842773,397.407013 281.260193,396.294250 
	C284.699005,387.127502 290.790131,379.357452 294.544403,370.265228 
	C298.341278,361.069763 301.278473,351.736450 304.247498,342.282745 
	C307.386230,332.288727 307.666840,322.222351 308.591614,312.127655 
	C309.104828,306.525696 306.828003,305.405304 301.709351,307.753815 
	C294.127502,311.232483 289.091644,316.638489 285.710815,324.532288 
	C283.703857,329.218323 280.307220,333.522247 278.253876,338.394501 
	C276.064362,343.589905 276.233429,349.129944 275.970551,354.612091 
	C275.804169,358.082397 275.159088,361.481598 270.923737,362.124878 
	C266.426819,362.807892 264.419708,359.314880 263.489624,356.101532 
	C261.607880,349.600128 261.150421,342.972595 265.046875,336.721161 
	C266.181030,334.901459 266.385834,332.370728 265.126556,330.509277 
	C263.677826,328.367737 261.437134,329.544312 259.660645,330.288788 
	C254.542999,332.433411 249.935883,330.672943 245.327087,328.694733 
	C237.411743,325.297272 230.243332,320.995026 226.342224,312.801239 
	C225.262436,310.533264 224.018021,308.395447 222.226089,306.584045 
	C220.520828,304.860260 219.829422,302.722229 219.620316,300.281464 
	C218.262283,284.429382 221.814041,269.803925 231.029373,256.836426 
	C234.568741,251.855988 239.122345,247.597778 243.198959,242.997330 
	C250.678345,234.556961 260.581177,228.807343 268.141754,220.397018 
	C270.593079,217.670212 274.175201,215.720612 277.576630,214.139435 
	C283.773376,211.258774 288.707886,206.347809 295.102875,203.817001 
	C299.801819,201.957428 299.859039,197.171829 300.534119,193.254654 
	C301.274292,188.959457 303.557892,186.654480 307.435181,185.845230 
	C311.912537,184.910736 315.397125,186.969193 317.311310,190.883560 
	C319.124756,194.591919 320.398621,198.557312 320.157593,202.889740 
	C319.754669,210.133301 319.323914,217.392715 319.398499,224.640366 
	C319.467865,231.377823 319.876190,238.112961 320.463959,244.857727 
	C321.115784,252.337891 319.393311,260.024811 318.706299,267.621826 
	C318.406708,270.934357 317.928680,274.252258 319.433777,277.442261 
	C320.040070,278.727264 320.820343,280.083954 322.370422,279.464417 
	C331.949432,275.635712 341.260468,272.316986 346.628387,261.640991 
	C350.372314,254.194839 352.856689,247.212357 352.719940,239.035675 
	C352.671387,236.132935 351.868347,233.458588 351.257050,230.714447 
	C350.708679,228.252579 350.355957,225.847122 350.820526,223.307556 
	C352.104004,216.291153 351.255188,209.526230 348.554840,202.887970 
	C347.183563,199.517014 346.296570,195.925247 345.458527,192.370148 
	C344.957611,190.245071 345.101746,187.967529 346.860352,186.318268 
	C348.315948,184.953140 348.828186,183.352844 348.959900,181.434616 
	C349.036835,180.314545 349.204193,178.807785 349.935211,178.189178 
	C354.784424,174.085648 356.843750,167.890823 361.322418,163.476181 
	C364.972900,159.877884 370.257263,158.458649 374.611694,160.764023 
	C375.050873,160.996552 375.529877,161.295334 375.998352,161.310089 
	C383.883209,161.558441 386.400330,166.607407 388.743591,173.395905 
	C393.388153,186.851242 395.726929,200.265366 393.209137,214.389740 
	C392.834595,216.490768 393.156799,218.710739 393.086761,220.873428 
	C393.049591,222.020798 393.280212,223.811920 392.674591,224.202072 
	C388.923523,226.618835 389.921387,231.423126 387.656647,234.148575 
	C381.258484,241.848251 378.558441,251.949524 371.168549,258.900391 
	C368.451752,261.455841 367.869293,264.781769 368.185059,268.058472 
	C369.383545,280.494537 367.968231,292.946564 368.687836,305.414948 
	C369.029266,311.330872 368.075684,317.521912 368.227325,323.617065 
	C368.494080,334.336548 371.550720,344.545624 373.854156,354.891937 
	C374.181732,356.363251 374.813934,357.762024 376.537323,358.193573 
	C380.908966,354.626251 385.973938,351.743744 387.490234,345.591125 
	C387.879791,344.010620 389.796265,343.313019 391.359955,342.648254 
	C397.564911,340.010345 402.705139,335.871490 407.914032,331.644287 
	C413.259155,327.306519 419.201599,323.608124 425.220123,320.231415 
	C429.114044,318.046722 430.068146,314.148254 430.976349,310.909760 
	C434.909515,296.884949 454.802765,287.956726 467.576172,293.042328 
	C471.370270,294.552856 475.089539,299.413696 474.977386,303.494843 
	C474.842529,308.404938 471.445740,310.398834 467.167023,307.940094 
	C463.743347,305.972748 461.397186,302.394135 457.356720,301.299744 
	C456.252350,301.000610 455.190552,300.286499 454.095856,300.256927 
	C450.460785,300.158691 442.125641,307.164734 440.865173,310.785828 
	C439.274475,315.355774 439.638916,320.347321 438.602997,324.637817 
	C437.081512,330.939514 439.068634,335.854523 440.332306,341.334381 
	C442.992065,352.868164 452.217194,358.509094 462.800293,355.738098 
	C468.447083,354.259583 473.806183,352.338226 478.731018,349.258331 
	C483.932129,346.005737 485.628937,340.191620 488.540710,335.310638 
	C491.342743,330.613708 492.459442,325.165192 493.765625,319.962524 
	C496.175842,310.362457 499.901672,301.114685 501.849335,291.466095 
	C503.527649,283.151855 506.868378,275.363220 507.904175,266.709625 
	C508.595276,260.935577 511.719421,254.715942 511.710144,248.667267 
	C511.696533,239.805817 513.930359,231.381683 515.385925,222.872314 
	C516.093506,218.735764 517.167542,214.229309 518.836426,210.221436 
	C520.847412,205.391998 521.745728,200.374329 522.663879,195.348206 
	C523.110474,192.903885 523.325012,190.479965 524.213257,188.088104 
	C525.759338,183.924774 524.114746,180.938889 519.798889,179.747772 
	C510.019165,177.048721 501.979614,181.250458 494.604065,186.795029 
	C481.727325,196.475113 473.934662,209.652283 470.016205,225.106415 
	C467.717072,234.174057 469.379272,242.785568 474.358276,250.740097 
	C475.148529,252.002640 475.788086,253.361954 476.462128,254.694336 
	C479.618011,260.932770 482.604156,261.634064 488.972778,258.600739 
	C491.613892,257.342773 494.353210,256.231964 497.033752,255.015213 
	C499.687164,253.810776 503.031769,253.640869 505.118591,256.751526 
	C507.161957,259.797394 506.758759,262.749512 504.318420,265.404022 
	C502.743103,267.117523 501.031250,268.678467 500.165802,270.953430 
	C499.599945,272.440948 498.247223,273.233978 496.769745,273.688629 
	C487.214935,276.628815 476.071564,271.763428 470.140533,263.921295 
	C464.278992,256.171082 463.529724,247.073578 461.019928,238.411774 
	C457.006165,224.559708 460.882416,211.685959 468.069946,200.192673 
	C471.792847,194.239563 477.166595,188.982391 481.997559,183.581299 
	C486.535095,178.508270 491.588196,174.753876 497.358459,171.409531 
	C508.200958,165.125458 519.503784,165.780380 530.866821,168.765518 
	C534.026062,169.595474 537.396240,171.444244 539.585754,174.216644 
	C547.834656,184.661606 557.687012,193.606598 566.542053,203.455704 
	C571.887573,209.401413 576.139893,216.409149 580.426819,223.313156 
	C584.621399,230.068527 586.175110,237.715439 589.637695,244.538193 
	C593.572754,252.291779 597.597534,260.072235 601.669312,267.767670 
	C604.332581,272.801086 606.906128,277.748993 610.040222,282.554413 
	C613.335083,287.606384 617.866577,291.025482 622.326050,294.631500 
	C625.020874,296.810547 628.464172,298.074432 631.117126,300.292542 
	C635.291870,303.782928 640.353638,303.030243 644.946472,303.302185 
	C653.879395,303.831024 662.915710,304.943939 671.701477,301.135925 
	C676.579651,299.021637 682.258301,301.340851 684.871582,305.218323 
	C686.591125,307.769836 686.847229,310.667938 685.625854,313.314667 
	C684.423767,315.919861 681.370789,316.731018 679.143494,315.812927 
	C671.738708,312.760651 664.704956,316.387238 657.508606,316.504425 
	C654.225769,316.557831 650.462585,315.568512 647.534180,318.304382 
	C647.351196,318.475342 646.826599,318.473358 646.567261,318.341980 
	C638.337036,314.173065 628.767761,314.582306 620.580139,309.059143 
	C611.397705,302.864899 603.096008,295.722290 594.581299,288.819733 
	C590.893188,285.829987 590.542358,280.278809 588.852417,275.849670 
	C587.064453,271.163513 585.255981,266.615082 582.211670,262.550659 
	C579.208313,258.540894 578.660706,253.365005 576.027039,249.039658 
	C570.323059,239.671936 566.667847,229.184387 560.552795,219.995728 
	C555.623474,212.588882 549.016235,206.677856 543.030945,200.235413 
	C540.166016,197.151627 537.469055,193.858200 534.247681,190.773071 
	C534.598755,199.701996 532.314514,208.095688 529.825378,216.074203 
	C526.821350,225.702927 525.764648,235.506104 524.028625,245.270096 
	C523.825562,246.411987 523.432739,247.431259 523.782959,248.657272 
	C526.896912,259.559631 525.082092,270.606506 522.885132,281.146973 
	C520.776672,291.262390 518.722351,301.620575 514.407166,311.234192 
	C513.837708,312.502838 514.196289,314.187256 514.121521,315.678955 
	C514.071838,316.670166 514.417419,318.022064 513.900940,318.596710 
	C508.192963,324.948090 507.945801,333.539429 504.576019,340.710693 
	C500.527710,349.326019 497.313629,358.894348 488.186462,364.495758 
	C485.150879,366.358734 483.564240,370.582672 481.389526,373.623352 
	C480.829742,373.623352 480.282440,373.743530 480.207520,373.606140 
	C475.933960,365.768494 469.030396,369.877869 463.006195,369.687408 
	C453.365631,369.382660 444.147369,367.256958 435.747772,362.269897 
	C434.841797,361.732025 434.087646,360.886078 434.228729,359.850342 
	C435.271118,352.198456 431.359344,345.594910 429.564331,338.592133 
	C428.052063,332.692444 424.737061,332.061462 419.279083,334.635071 
	C412.130371,338.005951 406.625854,343.641174 400.098358,347.770264 
	C396.471527,350.064453 393.660248,352.681641 392.688141,356.498749 
	C391.955902,359.373962 390.668091,361.657684 389.091797,363.989044 
	C383.939911,371.608643 369.922089,373.838806 362.684235,368.170471 
	C360.549103,366.498413 359.127136,364.438812 359.992706,361.712830 
	C360.837128,359.053436 360.266663,356.433167 360.445679,353.807556 
	C360.583344,351.787842 359.915100,350.900421 358.118286,350.040375 
	C353.411957,347.787750 350.868317,344.028381 350.818817,338.623810 
	C350.762848,332.514374 350.545929,326.419189 349.790710,320.324951 
	C349.287872,316.267303 351.803040,312.705017 353.039429,308.950867 
	C353.391846,307.880859 354.693024,306.442444 354.055969,305.798645 
	C349.694000,301.390686 352.581604,294.063477 347.689545,290.066772 
	C339.129395,291.719147 331.209290,295.029083 323.012482,297.420654 
	C320.870697,298.045532 320.142303,299.974213 320.344940,301.745026 
	C321.133362,308.635681 319.871399,315.594330 321.166351,322.452423 
	C321.288452,323.099213 321.404114,323.830292 321.229248,324.437714 
	C318.520142,333.848785 318.209229,343.715515 315.501526,353.165710 
	C313.378510,360.575256 310.085876,367.356018 306.416382,374.436127 
M145.697693,346.852539 
	C145.014984,348.878571 143.985153,350.747559 143.270020,352.789612 
	C140.984131,359.316925 139.914902,366.422485 135.775940,372.143066 
	C129.820984,380.373688 124.826469,389.150757 120.364349,398.217194 
	C114.133179,410.878082 111.438713,424.569489 110.634804,438.497253 
	C110.452911,441.648499 108.799850,446.155365 112.947876,449.314514 
	C114.781319,447.808228 116.585403,446.388885 118.320061,444.889191 
	C123.687584,440.248810 132.852127,439.424316 139.065247,442.908081 
	C142.768921,444.984863 146.234604,447.404755 150.754028,447.992737 
	C153.301239,448.324158 157.297882,450.106262 156.160156,453.212097 
	C155.162201,455.936371 154.597382,460.257446 149.193634,460.249451 
	C143.544418,460.241089 138.808731,458.928467 134.353760,455.678406 
	C129.835724,452.382263 125.787445,453.115509 121.204956,456.388306 
	C117.100266,459.319916 116.301346,463.126740 115.409813,467.438354 
	C113.995003,474.280640 118.494614,479.153870 120.594452,484.846893 
	C122.309891,489.497711 125.989273,491.969177 130.121994,493.809204 
	C138.409180,497.498901 147.841156,492.943665 150.234055,484.468079 
	C150.764450,482.589478 151.851196,480.830841 152.885605,479.141815 
	C153.964691,477.379883 156.016388,476.776306 157.660416,477.431091 
	C159.331314,478.096558 160.864517,479.229706 160.835663,481.877045 
	C160.709259,493.481262 153.374329,506.091919 141.527435,509.584686 
	C135.202652,511.449432 128.418533,513.364990 122.347229,507.516479 
	C119.370392,504.648926 115.557396,502.028748 110.749008,503.384827 
	C108.790504,510.468353 116.384781,528.109192 120.069008,535.468201 
	C123.719582,542.760071 129.713470,548.429260 135.158859,554.442749 
	C140.011383,559.801575 146.429703,562.180786 153.085114,563.477295 
	C157.303619,564.299133 161.878479,563.483459 166.274384,563.149963 
	C170.828125,562.804443 172.358612,558.333923 175.438690,555.954346 
	C178.589874,553.519836 181.732559,551.000305 180.804626,546.209412 
	C180.529297,544.788025 181.210083,543.427307 182.666992,543.048706 
	C185.453247,542.324646 185.832382,539.957153 186.720322,537.828308 
	C188.594162,533.335938 187.885208,528.345947 189.931488,523.787415 
	C193.850647,515.056580 194.337936,505.296570 195.042221,496.105469 
	C195.833618,485.777557 192.815994,475.206421 192.066132,464.697540 
	C191.374939,455.011047 184.360504,447.548279 183.875961,437.604248 
	C183.450653,428.876404 180.761032,420.223053 178.722244,411.619568 
	C176.620468,402.750244 174.869675,393.677490 171.559631,385.245514 
	C167.533295,374.988892 162.858521,365.086334 160.569351,354.150635 
	C159.511642,349.097717 156.313965,344.463898 153.887863,339.742157 
	C153.060989,338.132935 151.586319,336.529419 149.542068,336.920807 
	C147.279221,337.354004 147.405685,339.476929 147.191803,341.333282 
	C147.004166,342.961853 146.421555,344.544891 145.697693,346.852539 
M266.895264,236.641815 
	C261.352539,238.466568 257.569214,242.739182 253.535172,246.546783 
	C248.044281,251.729492 245.326172,258.986633 240.706635,264.776733 
	C236.062195,270.598053 235.925964,277.407349 235.805725,283.902954 
	C235.727798,288.113434 236.849197,293.183960 241.244156,296.174652 
	C242.701309,297.166199 242.700668,299.138275 243.042511,300.709351 
	C244.499786,307.406982 250.670410,312.418884 256.751556,311.657379 
	C264.504089,310.686493 269.685181,305.062225 269.598114,297.673401 
	C269.582458,296.345428 269.316132,295.013214 269.377930,293.692871 
	C269.644287,288.003326 272.828979,284.111023 276.982544,284.283081 
	C281.251923,284.459930 283.689728,288.457947 283.071320,294.481323 
	C282.723969,297.864746 282.191101,301.229095 281.669098,305.147736 
	C290.647797,299.830414 298.748901,294.497864 305.740143,287.598114 
	C307.792145,285.573029 308.362000,283.237915 308.603882,280.463287 
	C309.345978,271.950562 305.163696,263.457611 308.567932,254.941422 
	C308.849548,254.236908 308.639160,253.282074 308.498749,252.471008 
	C307.335999,245.753326 307.874146,239.083282 308.502075,232.337067 
	C309.023224,226.738205 310.314209,221.156250 309.623871,215.460403 
	C308.866333,209.210297 304.986298,207.324249 300.045898,211.022049 
	C298.402069,212.252411 296.457214,212.765076 294.845642,213.797867 
	C289.050293,217.511932 282.310608,219.782104 277.741974,225.426743 
	C274.626984,229.275391 270.966949,232.682892 266.895264,236.641815 
M376.546112,212.826660 
	C376.716400,210.511566 376.789337,208.184357 377.075806,205.883728 
	C377.835724,199.780624 374.375824,195.781876 370.747925,191.659302 
	C368.094452,193.338638 366.913086,195.526550 367.348358,197.850296 
	C368.708984,205.114182 367.784729,212.448715 368.438995,219.716217 
	C368.609711,221.612778 368.493958,223.832657 371.382782,224.492889 
	C373.817017,221.205032 376.307098,217.961700 376.546112,212.826660 
z"/>
<path fill="#000000" opacity="1.000000" stroke="none" 
	d="
M351.467590,511.609283 
	C347.323486,513.285522 345.114502,516.386963 343.501373,520.183594 
	C354.533203,520.980835 365.807617,521.362549 376.961578,522.728027 
	C387.335327,523.997925 395.453522,530.042175 403.081940,536.913513 
	C410.311493,543.425598 415.138336,551.673340 420.658478,559.446716 
	C424.237793,564.487122 423.055725,570.522278 424.166718,576.064697 
	C425.459778,582.515564 426.949921,589.033936 425.442108,595.759827 
	C425.159576,597.020386 426.071777,598.627258 426.647644,599.983032 
	C427.492737,601.972534 427.163666,603.621643 425.431549,604.823486 
	C422.000885,607.203918 420.863953,610.641174 420.301819,614.572815 
	C419.825470,617.904663 418.307678,620.958069 416.184021,623.571045 
	C412.469086,628.142090 410.674591,633.616272 408.639496,638.979797 
	C407.923615,640.866638 407.317352,642.840637 405.777374,644.173340 
	C402.758484,646.786011 400.920593,649.691040 400.718323,653.953247 
	C400.588593,656.687866 398.750153,658.665588 395.295502,659.463989 
	C385.408173,661.749207 375.881714,665.252808 367.141449,670.540283 
	C363.231842,672.905396 359.028534,674.263367 354.616974,675.200256 
	C349.755768,676.232422 346.368561,672.122437 341.946747,671.669006 
	C334.846558,670.940857 330.374695,666.152283 324.883514,662.276978 
	C319.678802,658.603760 315.147583,656.437683 312.234314,649.815552 
	C309.840027,644.373230 310.301300,639.030457 308.896667,633.781128 
	C306.471466,624.717651 313.774384,619.956177 319.246307,614.643921 
	C320.182190,613.735352 321.386536,613.107727 322.352631,612.225220 
	C328.602295,606.516235 334.556915,607.692200 338.076141,615.364624 
	C341.572693,622.987732 341.481323,623.607056 334.926514,630.084961 
	C333.587250,631.408630 333.747406,632.658020 334.295837,634.150574 
	C336.020020,638.842834 338.409851,643.193054 341.610748,646.997986 
	C347.861694,654.428589 354.102936,654.995422 361.378998,648.652222 
	C363.856110,646.492737 365.866211,644.997375 369.593140,645.411804 
	C373.604736,645.857910 376.304626,642.048218 379.210815,639.774475 
	C391.663239,630.031921 396.383362,615.506531 402.514191,601.735901 
	C407.055145,591.536316 406.826904,581.285461 404.708954,571.009338 
	C402.096924,558.335938 396.314850,547.059448 384.955750,539.976929 
	C378.949249,536.231750 371.531830,536.601257 364.646118,535.942505 
	C362.046112,535.693848 359.289337,535.861145 356.727020,535.354431 
	C348.106354,533.649841 339.725891,536.528259 331.196747,536.403198 
	C328.385620,536.361938 326.645935,538.579407 325.741577,540.938110 
	C323.716400,546.220032 320.481476,550.454285 316.306030,554.247131 
	C313.292542,556.984497 312.253937,561.078552 311.290344,564.943909 
	C309.898224,570.528076 307.501160,575.476074 303.835602,579.970215 
	C300.534149,584.017883 296.233185,585.755188 291.564026,584.759827 
	C286.408844,583.660767 283.458282,579.545105 283.312347,574.207031 
	C283.183929,569.508789 284.201569,565.182251 288.551453,562.048706 
	C292.742126,559.029846 295.750336,555.364258 298.301178,550.253967 
	C301.770844,543.303162 305.269867,535.368225 313.066406,531.066589 
	C317.270996,528.746826 319.567688,524.400146 322.252136,520.315918 
	C325.918732,514.737305 328.845367,508.716705 332.770569,503.227386 
	C337.076660,497.205292 342.289642,491.720947 345.339752,484.613892 
	C349.312378,475.357330 355.631287,467.383148 361.985107,459.562469 
	C362.503967,458.923828 363.530640,458.519165 363.735046,457.831482 
	C365.680664,451.286743 371.543030,447.525360 375.079651,442.062134 
	C377.797974,437.862976 382.740906,435.077209 385.133698,430.162598 
	C386.274628,427.819122 388.399048,426.003082 389.382324,423.459961 
	C390.686157,420.087799 393.848419,420.382019 396.590973,420.219269 
	C399.245087,420.061798 400.061829,422.279449 401.071655,424.246918 
	C404.265991,430.470551 402.999207,435.053741 398.454285,440.824585 
	C392.117737,448.870331 384.128387,455.483063 378.745972,464.326721 
	C375.930359,468.952942 376.719086,474.322357 374.797577,479.104004 
	C374.279236,480.393829 375.873108,481.755096 377.812988,481.329926 
	C383.973389,479.979584 389.774475,481.900879 395.615967,483.359039 
	C397.400238,483.804413 398.773438,482.976501 400.344116,482.373230 
	C411.171692,478.214722 420.464081,471.388947 430.237518,465.397552 
	C431.808777,464.434326 432.585846,462.750336 433.980530,461.544922 
	C440.877502,455.584076 448.986633,450.977814 454.486267,443.433594 
	C455.352203,442.245697 456.684235,441.712006 458.017853,442.435608 
	C460.022308,443.523224 461.455353,445.218689 461.179657,447.658020 
	C459.778687,460.055023 453.191681,468.921387 442.460724,474.953064 
	C441.291473,475.610291 440.191956,475.014648 439.025391,475.110840 
	C439.068298,480.800903 434.352905,482.497650 430.523834,484.129211 
	C425.758636,486.159637 421.250977,488.720490 417.183624,491.603912 
	C404.677185,500.470093 391.135620,503.316254 376.252045,500.619141 
	C374.142761,500.236908 372.450653,500.514954 370.634216,501.752258 
	C368.426483,503.256012 365.716064,504.161652 363.105164,504.029144 
	C357.416565,503.740417 354.456573,507.282379 351.467590,511.609283 
z"/>
<path fill="#000000" opacity="1.000000" stroke="none" 
	d="
M613.586243,431.148438 
	C608.323425,437.538483 602.902527,443.295593 598.538330,449.928223 
	C597.168579,452.010010 594.430115,450.860504 592.506104,451.678497 
	C586.120544,454.393127 579.312012,454.680786 572.589539,455.672150 
	C568.757812,456.237183 565.124695,456.195099 561.953247,454.330627 
	C555.921509,450.784576 548.986816,448.376465 544.892151,442.125031 
	C542.842651,438.995941 539.796570,436.913574 537.146423,434.413086 
	C531.053833,428.664612 529.517517,421.166382 528.758667,413.260681 
	C528.382507,409.341736 527.278809,405.331268 527.138000,401.554535 
	C526.885498,394.787262 526.018921,387.675201 526.885071,381.301025 
	C527.839478,374.277649 529.559692,366.980499 529.315674,360.079407 
	C528.849426,346.895264 532.309753,334.637085 534.577637,321.978271 
	C536.083801,313.571106 537.985535,304.974731 537.297180,296.091827 
	C536.751892,289.055542 540.201111,282.441467 541.711426,275.602875 
	C543.144409,269.114258 543.925598,262.557678 544.425720,255.932999 
	C544.721436,252.016678 545.721069,248.154434 546.385437,244.264648 
	C546.750916,242.124222 546.932068,240.013763 546.394775,237.829544 
	C545.391296,233.749847 547.641235,230.741623 550.851013,229.255920 
	C554.363342,227.630188 555.508484,231.238403 557.020813,233.544235 
	C558.316345,235.519501 559.771912,237.562866 559.293274,239.985641 
	C557.325623,249.945557 558.930725,260.680359 552.713074,269.756073 
	C551.653198,271.303192 551.140503,273.546417 551.162476,275.458954 
	C551.268433,284.656647 548.404907,293.457947 547.685425,302.462189 
	C547.057800,310.316589 543.993652,317.540680 543.400452,325.293060 
	C543.272034,326.970612 543.213684,328.615509 543.800476,330.226593 
	C544.275146,331.529755 544.591736,333.127747 543.668518,334.069794 
	C538.147522,339.703125 540.602295,346.570374 540.857056,352.933502 
	C541.020325,357.012787 538.529053,360.138275 538.695740,364.374664 
	C539.312317,380.045593 536.915894,395.828278 541.286377,411.352905 
	C542.305054,414.971100 543.699280,418.410828 545.846313,421.193726 
	C550.647095,427.416382 554.491699,434.395630 561.343506,439.052704 
	C568.416260,443.860077 575.660400,442.845947 582.841553,440.792633 
	C586.324707,439.796692 590.230896,440.933136 593.349182,438.318665 
	C601.020081,431.887177 607.077637,424.594208 607.761780,414.006775 
	C608.288696,405.853027 610.812683,397.714111 606.952209,389.629913 
	C605.237122,386.038513 604.113831,382.338776 599.652649,381.054169 
	C597.626160,380.470612 595.855469,379.042908 593.914551,378.110870 
	C586.367249,374.486603 579.450928,377.626617 577.071167,385.697998 
	C576.427673,387.880493 575.332458,389.907166 572.806519,389.925415 
	C570.314331,389.943481 569.773926,387.687897 569.187378,385.767609 
	C567.199890,379.260803 571.821960,372.047180 578.307556,371.434906 
	C579.098633,371.360229 580.155945,371.219147 580.590088,370.694916 
	C585.030640,365.333435 590.818726,367.258270 595.888367,368.477112 
	C603.063721,370.202118 608.639160,374.797119 612.114563,381.462097 
	C613.643250,384.393860 614.629639,387.604370 615.938293,390.655670 
	C620.367981,400.983887 616.380127,411.263763 615.709412,421.546692 
	C615.506042,424.664429 614.451721,427.726654 613.586243,431.148438 
z"/>
<path fill="#000000" opacity="1.000000" stroke="none" 
	d="
M535.501099,488.595612 
	C530.486816,484.521851 529.965698,478.530579 527.944031,473.412201 
	C526.350159,469.376984 522.839111,469.024719 519.938660,467.615662 
	C517.586365,466.472900 516.130981,468.581360 514.907166,470.553223 
	C512.203491,474.909485 508.974091,471.703217 506.133514,470.788757 
	C502.869690,469.738037 502.056091,466.898590 503.018433,463.869019 
	C504.987823,457.669128 502.865875,452.997223 498.342072,448.944061 
	C496.719330,449.847565 496.808014,451.369507 496.341003,452.528931 
	C495.104767,455.598236 493.416687,457.992798 489.695465,456.915833 
	C486.786743,456.073914 486.023712,454.318970 485.092987,450.870880 
	C482.890564,442.711517 490.233246,438.585815 491.092957,431.926971 
	C491.373169,429.756409 492.149780,428.115143 490.681610,426.262665 
	C489.472198,424.736694 488.782898,423.197052 490.006378,421.269196 
	C491.262054,419.290588 490.979248,415.932007 494.349792,415.892151 
	C497.271149,415.857605 499.020569,417.859833 500.602936,420.176697 
	C503.493835,424.409607 507.210968,428.195221 506.488037,433.999725 
	C506.386810,434.812744 507.014709,436.056061 507.701752,436.572998 
	C512.330627,440.055847 516.213135,444.387177 520.516418,448.103943 
	C525.037659,452.008820 529.741333,456.566406 535.255310,458.788544 
	C542.926575,461.880096 549.807800,467.036652 558.210205,468.187408 
	C560.991028,468.568237 562.828369,470.658936 565.181152,471.420685 
	C565.665771,471.128876 566.131714,471.013550 566.194641,470.786530 
	C568.453918,462.635406 568.452271,462.615936 577.031250,464.296417 
	C578.535034,464.591003 579.991821,464.787598 581.434204,464.147766 
	C588.142334,461.172058 596.095886,461.044373 601.919678,456.373260 
	C606.093567,453.025421 611.532654,451.098755 614.481934,446.445343 
	C616.525330,443.221283 619.074341,442.807953 622.468933,442.766968 
	C631.695251,442.655579 636.140137,448.850586 638.664795,456.591492 
	C639.402588,458.853729 639.415466,461.048828 637.192505,462.344025 
	C634.615051,463.845795 632.260742,462.436462 630.414062,460.765839 
	C625.437866,456.264038 622.616699,456.296936 618.802124,461.507507 
	C617.739868,462.958557 617.380920,464.508850 618.891907,466.424622 
	C623.351990,472.079529 622.397522,475.800720 615.806396,478.807709 
	C613.752930,479.744507 611.347351,480.118195 609.067322,480.298889 
	C605.992554,480.542572 606.337402,477.585693 605.333496,475.831726 
	C603.922119,473.365936 601.335754,473.496216 599.097900,473.995117 
	C596.905762,474.483826 597.545288,476.465393 597.676453,478.148773 
	C597.934387,481.459076 597.659790,484.839966 598.204407,488.091339 
	C598.853149,491.964752 597.694092,495.250610 594.256409,496.209930 
	C591.501526,496.978729 588.126099,495.820709 585.826172,493.382263 
	C582.801270,490.175201 580.313171,486.337280 574.826416,487.147430 
	C572.019775,487.561859 569.873779,487.641907 570.611633,491.399323 
	C571.237915,494.588440 569.206726,496.295197 566.535645,497.407684 
	C563.898743,498.505798 561.779236,497.892181 559.833862,495.756012 
	C557.653259,493.361420 556.239258,490.796539 555.503967,487.549500 
	C554.890015,484.837921 552.531738,482.838898 550.499329,480.778625 
	C546.935425,481.812683 544.373108,483.188385 543.847107,487.586151 
	C543.365356,491.613892 540.497498,491.879730 535.501099,488.595612 
z"/>
<path fill="#000000" opacity="1.000000" stroke="none" 
	d="
M595.579834,811.582031 
	C586.335938,821.640808 577.076416,831.020081 564.148560,835.851685 
	C560.577148,837.186462 556.981201,837.057312 553.434570,837.816406 
	C539.073730,840.890259 524.656982,841.013245 510.133209,838.782715 
	C506.111450,838.165161 501.870483,838.734131 497.781860,838.855103 
	C488.233765,839.137512 478.943268,837.419617 469.550446,836.509216 
	C460.169281,835.599854 451.067841,838.052551 441.816864,838.698425 
	C434.886749,839.182373 428.101105,839.861694 421.315552,842.149841 
	C414.195282,844.550842 409.371521,849.088623 404.831512,854.466675 
	C402.053314,857.757751 399.559296,861.395813 394.430023,861.232056 
	C392.411011,861.167542 390.785370,860.744568 389.781616,858.976379 
	C388.757294,857.171875 389.223602,855.408264 390.374969,853.828552 
	C394.772888,847.794434 398.936066,841.484253 403.742432,835.878418 
	C410.198029,828.348938 419.265656,824.206543 428.906219,821.667236 
	C431.814301,820.901245 434.478027,822.390564 437.190948,822.844543 
	C441.108063,823.500122 444.690125,823.046082 448.430634,822.207397 
	C457.685608,820.132141 466.973969,821.891541 476.228424,822.339600 
	C494.897278,823.243347 513.476196,825.576843 532.187134,825.927856 
	C538.591492,826.047974 544.898438,825.339294 550.747742,822.871460 
	C554.359131,821.347778 558.123413,820.296509 561.764099,820.289551 
	C567.785522,820.278015 571.606628,817.141052 574.483704,812.788208 
	C578.006836,807.457947 583.036499,803.595825 586.991089,798.694275 
	C590.665466,794.140076 593.481750,789.324951 595.908569,784.023254 
	C597.261536,781.067688 599.614624,777.898193 603.947571,777.727173 
	C608.443909,777.549622 609.124878,780.712463 610.522827,783.850037 
	C612.288818,787.813721 611.745117,791.056702 609.520752,794.613892 
	C605.656738,800.793457 602.556396,807.530151 595.579834,811.582031 
z"/>
<path fill="#000000" opacity="1.000000" stroke="none" 
	d="
M268.570740,748.654541 
	C269.092651,749.070557 269.302856,749.324707 269.700134,749.740356 
	C274.742920,756.642700 275.245667,763.555054 270.986969,770.819946 
	C269.834290,772.786316 268.489044,774.177734 266.356995,775.072327 
	C259.601776,777.906799 255.030899,781.909912 256.038879,790.447266 
	C256.794586,796.848022 251.883362,800.965454 245.802856,803.515015 
	C238.576279,806.545227 232.028748,804.059326 225.384445,802.735291 
	C221.180649,801.897583 218.294601,798.050049 217.371506,793.915283 
	C216.348389,789.332703 220.530563,783.206543 225.439331,781.497742 
	C228.542496,780.417542 231.614716,779.143066 234.992813,778.750916 
	C240.021973,778.166992 241.244156,776.137817 239.665649,771.210693 
	C238.607803,767.908691 237.235443,764.690491 235.784500,761.535706 
	C233.885254,757.406189 232.490005,753.243530 233.671661,748.280457 
	C229.344940,748.459045 227.425949,751.646118 225.717606,754.364685 
	C224.128250,756.893799 222.137634,758.545105 219.642731,759.799438 
	C216.685135,761.286377 213.559845,762.483704 211.492981,765.291565 
	C210.220627,767.020020 208.518768,766.144287 206.805084,765.877563 
	C206.086716,767.369629 205.634079,769.048828 204.621262,770.259460 
	C202.510727,772.782043 200.103287,774.394409 197.362167,770.796997 
	C196.364487,769.487549 194.965149,768.475037 194.022568,767.134766 
	C191.829147,764.015808 191.959961,761.624084 195.792130,759.488831 
	C207.331665,753.059204 217.213181,744.611938 225.237854,734.053040 
	C226.441071,732.469849 227.681519,730.839844 229.198349,729.586975 
	C231.660645,727.553345 234.829849,726.511780 237.467545,728.555237 
	C240.072159,730.573120 242.066406,733.472046 240.076813,737.255005 
	C238.449722,740.348694 239.471649,742.375366 242.428696,744.212341 
	C245.640991,746.207825 247.677917,748.543396 245.597183,753.235046 
	C243.306366,758.400574 246.355331,763.208801 249.382935,767.455505 
	C250.606674,769.172058 252.479401,769.147217 254.306244,768.058533 
	C256.689056,766.638672 258.363251,764.481018 259.378662,762.074402 
	C260.468018,759.492615 259.815521,757.311340 256.261292,757.842773 
	C253.651932,758.232910 250.741531,758.701294 250.603531,755.098755 
	C250.487747,752.075928 249.917053,748.847351 254.823318,747.468384 
	C259.764984,746.079529 263.867065,747.003235 268.570740,748.654541 
M244.445770,791.110352 
	C245.638748,787.100891 242.915482,787.867188 240.849380,788.346985 
	C238.648315,788.858032 236.906998,790.744080 234.348114,790.438416 
	C232.964920,790.273193 231.483994,790.830261 231.592255,792.548035 
	C231.709549,794.409180 233.264542,794.872498 234.875946,794.841309 
	C238.256454,794.775879 241.530685,794.337646 244.445770,791.110352 
z"/>
<path fill="#000000" opacity="1.000000" stroke="none" 
	d="
M726.306702,534.692993 
	C732.247681,540.877563 736.104614,547.730652 736.220093,556.105225 
	C736.288757,561.086792 732.968506,562.991943 728.469299,560.698914 
	C723.966431,558.404053 720.507874,554.737305 717.204712,550.971924 
	C715.683411,549.237671 715.927185,547.755676 717.779114,546.340881 
	C721.227783,543.706299 720.991150,540.870178 718.069092,537.947815 
	C716.895813,536.774414 715.893005,535.423462 714.674866,534.303162 
	C708.109131,528.265015 701.530151,529.869446 698.539001,538.205688 
	C697.934204,539.891052 698.125916,541.842407 696.549500,543.200317 
	C694.320312,545.120422 691.711975,547.142090 688.957092,545.680664 
	C685.227722,543.702332 681.741760,540.152100 682.032104,535.942749 
	C682.601135,527.691467 677.965149,522.230530 673.529358,516.523010 
	C671.465942,513.867920 668.276550,512.363403 665.149109,514.014526 
	C662.385132,515.473755 662.478455,518.714233 663.089111,521.533875 
	C663.734924,524.515869 665.277100,526.994202 667.650879,529.029907 
	C670.025330,531.066284 671.146851,533.664673 669.062317,536.511780 
	C666.822510,539.571106 663.932495,539.294922 661.192871,537.244568 
	C653.884338,531.774841 651.548340,523.981384 652.093262,515.383667 
	C652.328369,511.674011 651.592041,506.424713 656.261169,504.936401 
	C662.959534,502.801239 669.707581,499.461823 676.899353,505.264465 
	C681.001587,508.574371 684.616089,511.815826 687.080627,516.457092 
	C688.345886,518.839905 690.750793,519.782959 693.412354,519.790649 
	C697.732605,519.803040 702.056030,519.813477 706.372925,519.670044 
	C711.248718,519.507996 714.662598,521.772644 717.724487,525.393066 
	C720.360901,528.510376 723.903931,530.833435 726.306702,534.692993 
z"/>
<path fill="#000000" opacity="1.000000" stroke="none" 
	d="
M183.810669,662.440674 
	C200.238113,657.229736 206.587646,664.148254 209.643097,678.090454 
	C211.696838,687.461853 205.959076,692.191162 199.113159,696.310364 
	C198.205215,696.856628 197.644577,697.507446 197.111267,698.388184 
	C193.559647,704.253601 188.905502,708.949402 182.532745,711.750305 
	C180.955414,712.443604 181.293625,714.368164 180.100601,715.381897 
	C175.060181,719.664612 169.136642,721.849792 162.771317,723.261658 
	C157.841888,724.355042 155.278046,721.959595 153.503250,717.878418 
	C151.852112,714.081604 153.637482,704.447327 156.447174,701.394592 
	C158.905457,698.723633 160.997025,698.677551 162.496246,702.126648 
	C163.643555,704.766113 165.387466,706.889526 167.097717,708.969910 
	C172.121109,708.265991 174.554306,704.603333 177.019440,701.105347 
	C178.271225,699.329102 177.840698,697.346497 176.862320,695.441833 
	C173.388474,688.678650 173.484161,681.650940 176.465332,674.917603 
	C178.357635,670.643677 177.735565,664.747375 183.810669,662.440674 
M190.160751,677.546143 
	C189.340469,678.682495 187.883224,679.646973 189.239243,681.575623 
	C191.877090,681.142822 194.175705,680.417053 194.455048,677.204773 
	C193.039688,675.924927 191.854279,676.321106 190.160751,677.546143 
z"/>
<path fill="#000000" opacity="1.000000" stroke="none" 
	d="
M672.279419,572.023071 
	C676.352722,570.252747 679.061829,571.585815 682.029358,574.142822 
	C686.671631,578.142883 689.582764,583.352661 693.181030,588.090149 
	C694.373413,589.659973 695.740845,591.096924 696.977722,592.535828 
	C700.361694,590.779785 701.078247,587.766357 702.671509,585.590759 
	C705.536804,581.678223 709.178589,581.375427 713.278076,581.903198 
	C717.498474,582.446472 719.320374,585.966431 720.914673,589.114563 
	C722.395386,592.038513 719.882202,593.680115 717.428589,594.615662 
	C711.080383,597.036194 710.253601,598.305786 710.870605,604.550964 
	C711.115356,607.028015 709.878296,609.080811 708.054443,610.659363 
	C706.109253,612.342957 704.053650,611.655701 702.003357,610.671387 
	C698.402954,608.942749 696.289734,605.674744 693.743286,602.852783 
	C691.330017,600.178467 689.364746,596.995850 686.035522,595.746826 
	C679.564758,601.546143 672.042480,605.104187 664.006104,603.597351 
	C653.103943,601.553101 646.768250,593.492065 644.105347,582.910461 
	C642.498291,576.524048 646.059570,572.957092 652.722290,573.483521 
	C655.205200,573.679749 657.711609,573.776123 660.197937,573.678833 
	C662.767029,573.578369 664.221863,575.947327 666.725342,576.307983 
	C668.683167,575.330322 669.328552,572.470093 672.279419,572.023071 
M669.215027,583.162292 
	C665.490967,586.438660 661.725525,583.424622 657.623779,582.962830 
	C657.929932,584.707214 658.053284,586.167236 658.456726,587.545227 
	C659.214600,590.133850 660.212280,593.066162 663.268982,593.203125 
	C666.554749,593.350342 669.227539,591.636475 670.633240,588.301880 
	C672.090942,584.844238 672.188538,584.865295 669.215027,583.162292 
z"/>
<path fill="#000000" opacity="1.000000" stroke="none" 
	d="
M683.820435,643.265198 
	C690.845398,651.814270 697.416626,660.300659 706.815674,665.942383 
	C709.708801,667.678955 712.213806,669.812866 713.279907,673.233643 
	C714.116577,675.918335 714.660706,678.822632 711.983398,680.474365 
	C709.339111,682.105652 706.054382,682.125000 703.618958,679.862610 
	C700.735779,677.184387 697.938599,674.479858 696.045166,670.763245 
	C692.186829,663.189758 685.883484,658.036743 678.150208,654.238464 
	C676.964722,656.851379 678.111084,658.984497 677.277466,661.127136 
	C674.244629,668.922119 666.626282,672.592041 657.905518,668.557800 
	C650.089355,664.941956 641.966187,661.040771 638.623840,651.659180 
	C637.429749,648.307495 637.913940,646.560547 640.404602,644.423645 
	C645.080872,640.411438 650.384949,640.630493 655.811462,641.829346 
	C655.963074,641.234436 656.180969,640.865295 656.077881,640.711670 
	C654.365173,638.159973 652.380005,635.137634 654.646179,632.523804 
	C657.212708,629.563538 660.775574,629.632874 664.700928,631.182373 
	C671.784729,633.978516 677.702881,638.391785 683.820435,643.265198 
M663.505066,658.565796 
	C668.591553,651.089417 667.834473,645.133606 661.145813,643.542175 
	C661.687073,646.953369 660.454773,649.307739 657.145752,650.493225 
	C655.250671,651.172119 654.518127,653.090820 655.834595,654.469910 
	C657.759583,656.486511 659.365784,659.432678 663.505066,658.565796 
z"/>
<path fill="#000000" opacity="1.000000" stroke="none" 
	d="
M169.464722,624.295044 
	C169.428925,620.052246 172.208755,617.950500 174.816284,615.963013 
	C176.650742,614.564697 179.432022,614.345825 180.695389,616.334778 
	C182.554047,619.260986 185.467209,622.329163 183.506424,626.320618 
	C182.116745,629.149475 180.411041,631.933228 177.866684,633.879028 
	C167.823547,641.559509 160.683182,652.455566 150.377960,659.601379 
	C144.103012,663.952393 141.096909,671.600464 133.451309,674.330750 
	C128.347031,676.153503 123.543976,675.362732 121.795334,671.269348 
	C119.500221,665.896729 121.317123,660.175537 126.634933,658.632629 
	C138.305038,655.246765 145.554779,646.115845 154.005066,638.534546 
	C159.138763,633.928711 163.718979,628.710571 169.464722,624.295044 
z"/>
<path fill="#000000" opacity="1.000000" stroke="none" 
	d="
M675.594421,724.603882 
	C665.292664,719.222473 655.578796,713.507935 644.977234,709.516541 
	C642.181824,708.464050 640.012756,705.807373 637.467346,704.013306 
	C635.304077,702.488586 633.179749,700.672668 630.745850,699.814087 
	C624.510620,697.614258 623.260193,691.735107 620.545349,686.922729 
	C619.994690,685.946594 620.499146,684.977722 621.382690,684.308228 
	C626.232239,680.634033 637.120850,682.708130 640.429199,687.897949 
	C641.677673,689.856384 642.842285,691.911743 644.359314,693.648560 
	C654.927490,705.747498 668.493103,713.096741 683.646545,717.601013 
	C687.959778,718.883057 691.493774,721.700195 696.017883,722.599487 
	C699.064148,723.205139 698.558655,726.096130 696.961121,728.235474 
	C695.260742,730.512451 692.699097,731.028931 690.208069,730.207764 
	C685.369385,728.612671 680.647949,726.661682 675.594421,724.603882 
z"/>
<path fill="#000000" opacity="1.000000" stroke="none" 
	d="
M744.333313,499.245544 
	C747.599426,500.860657 749.414307,503.178131 747.471558,506.149323 
	C745.471191,509.208618 742.512512,507.906647 740.067200,506.296631 
	C738.249573,505.099792 737.420166,503.104980 738.052979,501.064178 
	C739.017700,497.952972 741.688660,498.915375 744.333313,499.245544 
z"/>
</svg>